PathFileType	4	(X/Y/Z)	pose_F01_0-94.trc
DataRate	CameraRate	NumFrames	NumMarkers	Units	OrigDataRate	OrigDataStartFrame	OrigNumFrames
30	30	7	21	m	30	80	94
Frame#	Time	CHip			RHip			RKnee			RAnkle			RBigToe			RSmallToe			RHeel			LHip			LKnee			LAnkle			LBigToe			LSmallToe			LHeel			Neck			Nose			RShoulder			RElbow			RWrist			LShoulder			LElbow			LWrist			
		X1	Y1	Z1	X2	Y2	Z2	X3	Y3	Z3	X4	Y4	Z4	X5	Y5	Z5	X6	Y6	Z6	X7	Y7	Z7	X8	Y8	Z8	X9	Y9	Z9	X10	Y10	Z10	X11	Y11	Z11	X12	Y12	Z12	X13	Y13	Z13	X14	Y14	Z14	X15	Y15	Z15	X16	Y16	Z16	X17	Y17	Z17	X18	Y18	Z18	X19	Y19	Z19	X20	Y20	Z20	X21	Y21	Z21	
80	2.6666666666666665	-0.28025976395161223	1.8794568784101813	-0.45060029773353627	-0.2955975050825182	1.8748443106027313	-0.38326648679343506	-0.2952877413608756	1.7277774476439676	-0.39314781465347226	-0.3253419440551463	1.6376402949621547	-0.3925026617256155							-0.32988924717562884	1.6304664250452898	-0.4142773109011478	-0.26335772644125194	1.882981015326515	-0.5175021247982106	-0.2660271365785596	1.7320097932681466	-0.5663031809278032													-0.28229304672589045	2.045792438530758	-0.4399925702014315	-0.2653943093986501	2.120000936223505	-0.41759613634852516	-0.3038217284699615	2.032926289507942	-0.34710206370474816	-0.32100244310632553	1.9550142909601833	-0.2810616225246308	-0.31770733346587665	1.9221721094599487	-0.20599067899637885	-0.2578704934510068	2.0585713736568034	-0.5319987536229641	-1.5333440492422779	1.8857218206678867	0.7955706007428697	-0.2146114755519548	1.9296117792443517	-0.6183316754272008
81	2.7	-0.2778041771852386	1.8820108139589877	-0.4616987790995852	-0.29147611373881804	1.8776115592092868	-0.39658959318380166	-0.2952877413608756	1.7277774476439676	-0.39314781465347226	-0.3253419440551463	1.6376402949621547	-0.3925026617256155							-0.32988924717562884	1.6304664250452898	-0.4142773109011478	-0.26083510723736425	1.8890698661401	-0.5291139796130732	-0.2675115173219378	1.7347693914091056	-0.5671039302825494													-0.28143585640975194	2.044717928004824	-0.4452245623530442	-0.26641959002169774	2.1201831275372305	-0.4206406248685292	-0.30203961245412947	2.0333523246622156	-0.3497020043684988	-0.3104012451364649	1.9431595078480772	-0.313030329051183	-0.3142224642864574	1.893768848233765	-0.25819431750659194	-0.25500012388778975	2.054949160395188	-0.5392194343814023	-0.23933813635487422	1.968798780303468	-0.5833121605282096	-0.2207850559142904	1.8849133358664387	-0.617760627768372
82	2.7333333333333334	-0.28113121384894035	1.8841073515909281	-0.46315461991148454	-0.29489119244103357	1.8789729592450026	-0.398177338742604	-0.2952877413608756	1.7277774476439676	-0.39314781465347226	-0.3253419440551463	1.6376402949621547	-0.3925026617256155							-0.32988924717562884	1.6304664250452898	-0.4142773109011478	-0.2641344108656556	1.8892269309919907	-0.5303080830710835	-0.266774728641199	1.7348820129534686	-0.5723060925168699													-0.2795237101028692	2.045870504053136	-0.4474448227932122	-0.2647914010340757	2.1220189075558173	-0.43171401517338637	-0.301160317217078	2.034610830755949	-0.3549972265696466	-0.3056359256645375	1.9440551821493535	-0.33686795734749186	-0.3107375951070381	1.865365587007581	-0.31039795601680503	-0.2539841644202767	2.055293524492451	-0.5445414366709136	-1.5272354525293532	1.8787546566615492	0.7849092947486735	-0.2343117292514548	1.882123000927737	-0.606932311271944
83	2.7666666666666666	-0.2790635254389995	1.877954616582441	-0.46460607148344746	-0.2939071122600544	1.8728764801989966	-0.40270409289970444	-0.2952877413608756	1.7277774476439676	-0.39314781465347226	-0.3253419440551463	1.6376402949621547	-0.3925026617256155							-0.32988924717562884	1.6304664250452898	-0.4142773109011478	-0.2609515219903792	1.8838417536278764	-0.5369797102433082	-0.2666211514582744	1.7340950397532	-0.5723911861596505													-0.27964407520214285	2.0462503530184217	-0.45579881281070234	-0.2600802600374347	2.1233248670875087	-0.4410933072000322	-0.30041714214459625	2.0349426666311854	-0.3602987356389257	-0.30455098678472614	1.943280774291569	-0.34169591780361924	-0.30818293830275495	1.8634496405051502	-0.31192900549596986	-0.25374596619317263	2.0569778105175813	-0.5529462864556114	-1.518448843705316	1.8768595660352427	0.7687322885109958	-0.23636756760952304	1.8839123765810657	-0.6050352188633726
84	2.8	-0.27688032986773686	1.881247476071973	-0.4755517374510511	-0.2889009711090065	1.8758161226272578	-0.412742153733458	-0.2952877413608756	1.7277774476439676	-0.39314781465347226	-0.3253419440551463	1.6376402949621547	-0.3925026617256155							-0.32988924717562884	1.6304664250452898	-0.4142773109011478	-0.2615988894257559	1.887562244783357	-0.5406672915606501	-0.26589792741613366	1.7343564936596656	-0.5761327199866367													-0.27692471780457034	2.0470608735590767	-0.4716971593588397	-0.2582917617376509	2.122759966942218	-0.4516584805359714	-0.2999407275801982	2.036810824195628	-0.37412002550101436	-0.3047747199477721	1.9438114907540611	-0.3420259347907939	-0.3066891978322909	1.8643006133256959	-0.29146186192312484	-0.2555612549795888	2.056528795936786	-0.5675199728580812	-1.4895152915232723	1.874337486206481	0.7193025341026863	-0.23334401903520713	1.8821130785385367	-0.6122094217713698
85	2.8333333333333335	-0.27778342212073154	1.8804284707402357	-0.47874846007571414	-0.2889222831607663	1.8759499984023738	-0.4129123905158071	-0.2952877413608756	1.7277774476439676	-0.39314781465347226	-0.3253419440551463	1.6376402949621547	-0.3925026617256155							-0.32988924717562884	1.6304664250452898	-0.4142773109011478	-0.26161284942435736	1.8855606998814054	-0.5489042693737285	-0.26517470337399285	1.734617947566131	-0.5798742538136229													-0.2761020536660109	2.0487217441435517	-0.4858804155306007	-0.25847101619697666	2.123183417981156	-0.46010555123668295	-0.29836330674349026	2.039370594938906	-0.3852740359217046	-0.3046750844863805	1.9487679781819276	-0.34299944723658876	-0.3062024272909763	1.8707707748261106	-0.28382437200837635	-0.2535918918801072	2.0554107238158976	-0.5782530841540782	-1.4692316287174927	1.8767136092433747	0.6803100244414293	-0.23315660062253538	1.8842522178144567	-0.6125122782383321
86	2.8666666666666667	-0.27691920444899504	1.878722778581119	-0.48403195278793565	-0.28801912482132797	1.8762197916835641	-0.4181676763572574	-0.2952877413608756	1.7277774476439676	-0.39314781465347226	-0.3253419440551463	1.6376402949621547	-0.3925026617256155							-0.32988924717562884	1.6304664250452898	-0.4142773109011478	-0.262475969341472	1.884770216274269	-0.5521918028082461	-0.2644514793318521	1.7348794014725966	-0.5836157876406092													-0.2751243064400851	2.0489393673155374	-0.4914020573489635	-0.2576628939875381	2.1249414170639964	-0.47416088904379183	-0.2968344147020218	2.041117867036388	-0.39626132730439095	-0.3045271691117892	1.9527798218290102	-0.3434716122652953	-0.30630640563057143	1.8743969499144024	-0.27866495679914965	-0.24935670624240852	2.055799743842803	-0.5909718958718144	-1.4587287064144072	1.8748109526641352	0.6625237541187974	-0.2333163523065527	1.8820912436958128	-0.6208904042019642
